<svg width="1149" height="1169" viewBox="0 0 1149 1169" fill="none" xmlns="http://www.w3.org/2000/svg">
<path d="M553.328 1103.86C552.322 1103.46 549.354 1103.11 546.732 1103.07C539.576 1102.96 498.794 1098.27 485.32 1096C461.047 1091.91 450.26 1089.65 441.693 1086.86C436.849 1085.29 432.312 1084 431.61 1084C430.908 1084 426.133 1082.65 421 1081C415.866 1079.35 411.01 1078 410.208 1078C407.482 1078 397 1072.73 397 1071.36C397 1069.53 397.986 1069.64 403.667 1072.07C406.325 1073.21 411.425 1074.81 415 1075.63C418.575 1076.45 423.975 1077.95 427 1078.96C446.015 1085.33 458.2 1087.89 499 1094.11C517.666 1096.95 522.317 1097.28 551 1097.75C583.976 1098.3 600.877 1097.48 630.5 1093.92C686.194 1087.21 742.678 1070.73 794.463 1046.08C880.971 1004.9 955.369 940.765 1007.43 862.5C1023.08 838.974 1026.68 832.8 1040.1 806.5C1063.57 760.495 1079.99 711.527 1088.39 662.5C1092.11 640.718 1093.76 625.707 1095.55 597.076C1097.01 573.781 1097.01 569.637 1095.54 547.576C1092.14 496.493 1085.34 460.229 1070.49 414C1062.35 388.657 1058.32 378.647 1044.57 349.5C1038.11 335.797 1020.24 304.116 1015.87 298.619C1013.74 295.935 1012 293.111 1012 292.345C1012 291.578 1010.87 290.523 1009.5 290C1007.79 289.348 1007 288.29 1007 286.635C1007 283.906 998.674 272.007 996.751 271.988C996.063 271.981 991.899 267.194 987.499 261.352C973.832 243.202 945.476 213.658 920.669 191.719C883.644 158.977 830.358 125.896 782.637 106.025C738.392 87.6025 693.951 75.6484 648.5 69.9436C643.55 69.3224 634.775 68.1793 629 67.4036C604.482 64.11 592.409 63.6154 566.409 64.8394C485.219 68.6613 418.598 84.9703 351.5 117.45C324.664 130.439 296.082 146.942 279 159.31C230.463 194.451 202.778 219.858 170.376 259C157.17 274.952 127 317.517 127 320.195C127 320.711 125.929 322.566 124.62 324.317C121.11 329.013 105 359.296 105 361.199C105 362.098 104.567 362.983 104.039 363.167C102.408 363.733 89.5704 392.614 83.1593 410.141C74.6171 433.495 66.0257 462.919 62.031 482.5C61.5822 484.7 60.5125 489.692 59.6539 493.594C57.6145 502.862 54.4386 525.461 52.3594 545.5C51.2215 556.468 50.7203 569.992 50.766 588.5C50.9962 681.804 74.1534 766.608 121.491 847.5C148.544 893.729 181.22 933.153 221.303 967.924C235.856 980.548 242.184 985.674 251.5 992.386C253.076 993.522 253.242 994.092 252.285 995.078C250.759 996.65 244.352 992.547 230.877 981.371C204.639 959.609 179.311 934.599 162.685 914.035C159.334 909.891 153.745 903.284 150.266 899.354C143.22 891.394 142.336 890.218 131.384 874.25C127.141 868.062 123.326 863 122.908 863C122.489 863 121.509 861.762 120.729 860.25C119.95 858.737 114.098 848.433 107.724 837.352C91.6857 809.466 83.1861 792.959 76.1331 776C50.3286 713.952 37.3174 659.083 33.0156 594.17C29.1078 535.203 36.7633 466.286 53.5293 409.5C56.6147 399.05 59.7446 387.892 60.4847 384.704C61.2248 381.517 62.2597 378.367 62.7845 377.704C63.3093 377.042 65.3294 372.225 67.2736 367C85.1576 318.937 115.916 263.598 147.869 222C174.128 187.813 209.537 151.852 245.118 123.232C310.698 70.4833 394.939 30.6279 479 12.581C524.722 2.76491 558.757 -0.475258 608.205 0.280704C642.791 0.809464 657.557 1.93068 684.5 6.07394C786.645 21.782 883.506 66.3657 962 133.804C1005.74 171.381 1041.96 214.482 1072.26 265C1114.73 335.822 1139.67 414.255 1147.13 500.5C1148.61 517.591 1148.6 571.156 1147.11 587C1139.81 664.811 1120.86 730.228 1086.28 797C1054.95 857.49 1012.84 911.774 961.501 957.874C892.482 1019.84 811.655 1062.97 721.176 1086.09C684.666 1095.42 640.863 1102.02 605.308 1103.53C583.951 1104.44 555.268 1104.63 553.328 1103.86ZM462.154 1045.48C457.983 1041.97 455.211 1035.72 453.465 1025.89C450.827 1011.04 451.907 997.047 456.64 984.783C458.383 980.267 458.386 979.779 456.721 973.283C454.621 965.088 454.573 961.173 456.434 949.711C458.043 939.799 460.179 935.383 464.619 932.79C468.168 930.717 470.216 931.164 489.385 938.197L500.27 942.191L509.726 932.846C517.818 924.847 540.524 897.691 547.882 887.211C551.625 881.88 562.635 874.218 575.734 867.828C582.463 864.545 588.23 861.436 588.549 860.919C589.395 859.552 587.343 839.54 583.944 816C580.716 793.639 579.915 789.805 578.361 789.287C577.795 789.099 572.353 796.269 566.267 805.222C545.799 835.332 520.236 866.357 511.143 872.125C505.131 875.938 498.324 877.937 489 878.627C478.09 879.435 471.756 877.137 458.738 867.651C447.047 859.13 442.884 854.888 435.252 843.715C428.843 834.333 423.008 829.583 403.5 817.87C388.984 809.154 342.274 785 339.935 785C339.301 785 336.268 787.514 333.196 790.586C326.8 796.982 327.732 796.895 311.621 792.62C294.013 787.949 285.549 789.1 267.25 798.654C255.685 804.691 252.78 805.021 248.298 800.81C245.343 798.034 245.391 794.612 248.471 788.446C251.473 782.436 264.194 767.804 273.964 759.123C277.912 755.616 289.648 744.492 300.045 734.404C319.585 715.444 324.306 711.634 329.614 710.542C334.784 709.477 337.698 713.034 347.978 732.958C353.107 742.898 358.406 752.133 359.754 753.482C363.402 757.129 370.538 759.473 402.5 767.518C450.452 779.589 463.049 784.422 476.935 796.082C480.812 799.337 484.372 802 484.846 802C486.323 802 495.497 791.728 498.243 787C505.323 774.809 509.639 759.294 518.554 714C530.686 652.355 532.643 647.436 553.335 626.536C560.394 619.405 566.865 612.227 567.714 610.584C573.201 599.975 562.916 575.995 541.09 548.5C525.967 529.45 496.646 498.142 487.748 491.542L483.996 488.76L477.606 495.662C464.333 509.998 447.551 514.352 430.589 507.861C423.176 505.024 414.072 496.793 410.566 489.757C405.902 480.398 407.541 468.543 414.172 463.684C417.471 461.266 420 462.074 420 465.545C420 468.79 424.998 474 428.111 474C429.357 474 431.782 473.037 433.5 471.859C437.53 469.098 444.959 459.111 444.982 456.425C444.993 455.068 442.768 452.539 438.557 449.122C429.144 441.485 426 437.581 426 433.531C426 431.662 427.319 422.306 428.931 412.741C431.69 396.374 433.756 387.783 443.994 350.093C448.552 333.315 448.542 333.631 445.102 316.5C438.23 282.276 437.944 280 440.514 280C442.465 280 445.572 285.085 447.694 291.75C450.745 301.335 452.325 297.615 451.86 281.94C451.584 272.609 451.79 270.781 453.287 269.284C455.44 267.131 458.156 268.458 459.037 272.095C459.574 274.31 459.674 274.234 460.31 271.125C460.689 269.269 461 265.871 461 263.575C461 258.892 462.335 257 465.641 257C468.558 257 469.17 258.135 469.897 264.892C470.48 270.322 470.595 270.5 473.5 270.5H476.5L476.77 291.25C476.996 308.63 477.277 312 478.497 312C479.298 312 480.691 310.875 481.592 309.5C483.904 305.97 485.193 306.363 487.969 311.444C490.939 316.88 490.759 317.311 480.655 328.997C470.033 341.283 469.924 341.462 468.976 348.236C467.79 356.71 465.372 385.358 463.897 408.419L462.687 427.339L465.593 429.722C471.565 434.619 473.337 435.117 477.106 432.962C488.371 426.52 488.285 426.549 495.75 426.682C499.737 426.753 503 426.461 503 426.033C503 425.604 502.03 423.062 500.844 420.382C493.73 404.3 494.618 395.249 504.609 382C515.837 367.109 523.318 360.935 534.832 357.057C542.469 354.484 547.511 354.459 554.629 356.961C564.483 360.425 570.988 367.064 570.996 373.668C571.003 378.575 571.902 379.897 575.988 380.997C579.882 382.045 580.957 383.772 580.986 389.018C580.993 390.403 582.174 393.264 583.609 395.376C585.045 397.488 586.463 401.08 586.762 403.358C587.06 405.636 588.361 409.067 589.652 410.982C590.943 412.897 592 414.782 592 415.171C592 415.56 590.2 417.958 588 420.5C584.537 424.5 584.004 425.752 584.035 429.811C584.054 432.39 584.617 435.437 585.285 436.583C586.983 439.495 590.267 443.452 591.723 444.339C592.409 444.757 600.096 442.251 609.223 438.633C618.175 435.085 631.35 430.768 638.5 429.039C663.011 423.114 668.43 420.523 684.5 407.043C703.388 391.199 727.148 372.73 742 362.347C748.325 357.925 755.525 352.892 758 351.162C760.475 349.431 766.775 345.151 772 341.651C789.46 329.952 816.467 310.857 819.361 308.163C822.611 305.138 831.391 293.553 836.576 285.447C840.007 280.084 843.173 278.403 844.302 281.346C844.586 282.086 843.706 285.349 842.347 288.596C840.987 291.843 839.237 296.217 838.458 298.316C837.679 300.415 836.114 303.435 834.98 305.027C833.846 306.62 832.062 310.411 831.016 313.452C828.811 319.86 821.725 330.208 815.999 335.382C813.327 337.796 810.628 339.194 807.762 339.65C803.829 340.275 801.763 342.077 781 362.996C768.611 375.477 751.759 391.221 743.5 398.03C735.25 404.832 723.981 414.695 718.459 419.948C712.936 425.202 702.233 435.285 694.674 442.356C677.843 458.099 661 476.979 661 480.101C661 481.329 662.372 487.441 664.049 493.683C665.726 499.925 666.867 505.405 666.586 505.86C666.304 506.316 665.369 514.735 664.508 524.568C663.218 539.29 663.127 546.071 663.99 562.973C665.363 589.861 666.582 603.457 669.147 620.5C671.634 637.028 671.783 649.915 669.595 659.29C667.132 669.841 665.891 671.621 660.283 672.646L655.5 673.521L655.572 695.01C655.611 706.83 656.016 730.702 656.472 748.061C657.168 774.594 656.953 786.94 655.124 825.561C652.433 882.397 651.817 888.646 648.133 896.5C644.522 904.199 641.317 907.931 634.338 912.564C625.447 918.465 618.837 920.083 600.493 920.848C586.71 921.423 584 921.809 580.993 923.626C555.96 938.748 534.43 952.004 530 955.021C522.016 960.458 511.088 970.801 510.39 973.579C510.06 974.896 510.598 978.223 511.587 980.972C513.274 985.664 513.282 986.184 511.724 989.452C510.575 991.861 508.531 993.71 505.088 995.455C497.444 999.329 493.629 1005.66 486.375 1026.5C482.477 1037.7 479.044 1044.16 475.762 1046.45C472.254 1048.91 465.674 1048.44 462.154 1045.48ZM544.5 464.105C544.5 463.314 542.55 462.135 540 461.384C537.525 460.656 531.935 458.021 527.579 455.53C523.223 453.038 519.113 451 518.446 451C517.224 451 516.039 454.033 516.013 457.224C515.998 459.308 520.423 461.758 528.5 464.136C535.607 466.229 544.5 466.211 544.5 464.105ZM243.437 562.578C241.769 561.358 241.791 560.87 243.86 552.897C245.059 548.278 247.378 539.325 249.014 533C254.948 510.056 256.702 489.321 253.086 484.861L251.171 482.5L247.283 486.584C240.194 494.031 234.834 506.338 226.573 534.13C222.567 547.61 215.167 557.012 209.653 555.628C206.032 554.719 203.222 550.189 201.078 541.805C196.546 524.087 196.287 508.482 200.117 484.003C203.348 463.358 206.053 455 209.504 455C212.13 455 212.157 459.424 209.6 470.752C203.683 496.964 202.578 519.11 206.502 532.842C210.161 545.645 213.598 542.052 224.479 514.054C231.871 495.03 237.231 484.791 242.843 478.969C247.003 474.653 248.149 474.002 251.566 474.015C256.358 474.034 257.248 474.579 259.425 478.825C264.724 489.166 260.434 524.209 249.896 556.663C247.758 563.245 246.245 564.631 243.437 562.578ZM255.5 454.498C254.95 454.308 247.558 452.289 239.075 450.012C219.992 444.888 218 443.936 218 439.943C218 438.225 218.628 436.696 219.466 436.375C220.272 436.065 225.56 437.168 231.216 438.825C250.89 444.589 261.206 447.113 263.845 446.807C265.725 446.59 267.01 445.478 268.248 443C273.056 433.376 267.285 416.21 251.422 392.951C241.918 379.016 240.969 376.586 243.887 373.668L246.034 371.521L250.267 373.773C257.306 377.517 282.09 398.1 287.207 404.451C292.714 411.288 293.712 416 289.652 416C287.161 416 272.899 404.549 271.022 401.041C269.838 398.828 263.188 393.478 262.49 394.176C262.24 394.426 263.651 397.976 265.627 402.065C271.211 413.626 275.915 426.374 277.596 434.504C279.017 441.378 279.003 442.192 277.396 445.578C276.442 447.588 273.87 450.53 271.681 452.116C268.369 454.515 266.758 454.987 262.1 454.921C259.02 454.878 256.05 454.687 255.5 454.498ZM294.5 392.943C293.4 392.491 285.525 386.335 277 379.263C261.011 365.999 258.799 363.071 262.468 360.026C263.791 358.929 264.819 359.21 269.018 361.821C271.758 363.524 274 364.508 274 364.007C274 363.506 272.461 359.588 270.581 355.298C263.778 339.778 263.599 330.837 269.949 323.731C272.592 320.772 273.327 320.522 280.439 320.163C285.674 319.899 290.275 320.344 295.023 321.576C298.837 322.565 302.215 323.118 302.529 322.804C302.842 322.491 301.006 317.577 298.448 311.885C292.621 298.921 291.139 292.491 292.963 288.089C294.703 283.887 299.135 281.617 303.871 282.499C309.195 283.491 323.378 291.13 332.163 297.737C342.58 305.571 359.981 320.788 360.718 322.708C361.355 324.367 360.034 327.155 358.345 327.718C357.788 327.904 352.675 324.221 346.983 319.534C341.291 314.848 332.553 308.107 327.567 304.555C317.445 297.345 302.64 289.486 301.042 290.474C298.437 292.084 300.242 298.054 309.097 317.112C314.467 328.669 315.589 334.511 312.79 336.329C311.431 337.211 309.48 336.685 303.29 333.767C293.192 329.007 289.698 328.012 282.093 327.731C276.569 327.527 275.604 327.778 273.915 329.861C268.687 336.305 274.825 352.72 291.639 377.262C296.237 383.974 300 390.02 300 390.697C300 392.552 296.765 393.873 294.5 392.943ZM914.205 372.952C910.746 371.564 908.539 365.481 909.876 361.02C912.032 353.822 921.444 347.935 924.098 352.125C925.486 354.315 925.136 364.737 923.548 368.538C922.694 370.583 921.021 372.422 919.483 373.006C918.046 373.553 916.786 373.971 916.685 373.937C916.583 373.902 915.467 373.459 914.205 372.952ZM952.304 370.044C943.896 364.917 942.704 353.273 950.19 349.401C955.943 346.427 959.359 350.121 960.515 360.564C961.267 367.352 959.949 372.002 957.274 371.996C956.298 371.994 954.062 371.116 952.304 370.044ZM881.517 359.628C881.233 358.733 880.77 357.277 880.49 356.393C879.59 353.556 882.072 346.774 885.129 343.717C887.711 341.135 888.62 340.82 892.126 341.29C899.243 342.245 902.089 346.679 898.925 351.883C895.188 358.027 882.766 363.554 881.517 359.628ZM976.585 347.889C973.088 345.138 971 340.331 971 335.032C971 331.207 971.156 331 974.039 331C979.748 331 990 338.033 990 341.949C990 344.162 985.163 348.694 981.956 349.485C980.155 349.93 978.588 349.464 976.585 347.889ZM920 344.291C913.163 341.934 905.021 335.97 901.332 330.618C897.127 324.515 894 314.442 894 307C894 295.498 900.276 281.71 908.086 276.052C914.248 271.589 925.933 268.641 935.001 269.263C944.235 269.896 949.344 272.249 956.055 278.96C968.515 291.42 970.832 307.671 962.668 325.342C958.754 333.813 953.539 338.855 944.272 343.128C937.027 346.469 927.624 346.919 920 344.291ZM866.227 325.961C863.18 324.737 862.587 322.781 863.98 318.558C865.461 314.071 870.058 310.768 875.003 310.639C884.442 310.391 888.341 322.942 879.756 325.935C876.096 327.211 869.372 327.224 866.227 325.961ZM359.764 307.287C358.876 306.304 352.473 297.864 345.534 288.531C332.796 271.399 331.608 268.848 335.323 266.602C336.873 265.665 337.807 266.249 341.552 270.5C346.455 276.063 346.564 275.842 344.515 264.5C341.869 249.854 342.953 241.714 348.206 236.808C353.912 231.477 364.05 233.354 377.972 242.319C380.982 244.257 383.755 245.651 384.133 245.418C384.511 245.184 384.159 242.182 383.35 238.746C380.77 227.786 380 222.862 380 217.318C380 210.273 382.862 207 389.024 207C394.492 207 399.043 210.231 411.045 222.635C422.748 234.731 442 261.265 442 265.301C442 267.071 438.192 268.648 437.054 267.349C436.644 266.882 431.501 260.118 425.624 252.319C409.29 230.64 393.849 215 388.781 215C386.888 215 386.788 215.416 387.395 220.775C387.754 223.951 389.202 231.488 390.613 237.525C393.968 251.881 394.589 257.585 393.004 259.495C390.88 262.054 388.751 261.21 381.5 254.934C374.242 248.652 360.489 241 356.455 241C346.341 241 348.027 261.6 360.658 292.348C365.147 303.276 365.834 308.23 362.938 308.778C362.079 308.941 360.651 308.27 359.764 307.287ZM977.096 307.735C970.267 304.226 969.454 296.962 975.603 294.392C979.464 292.779 987.717 292.562 991.435 293.975C996.648 295.957 993.767 303.984 986.626 307.373C982.543 309.311 980.326 309.395 977.096 307.735ZM872.775 292.441C871.276 291.628 869.589 290.1 869.025 289.047C867.57 286.328 867.755 279.717 869.348 277.539C871.338 274.817 878.311 275.972 882.201 279.67C887.628 284.828 889.855 292.074 886.418 293.393C883.533 294.5 875.541 293.942 872.775 292.441ZM960.103 273.085C957.979 271.74 959.423 265.281 962.773 261.142C969.76 252.509 975.058 251.789 977.054 259.201C978.566 264.817 977.266 268.903 973.07 271.732C969.585 274.08 962.793 274.788 960.103 273.085ZM893.974 267.472C891.341 264.67 889.59 254.84 891.173 251.75C893.967 246.298 908 255.764 908 263.1C908 268.48 906.488 270 901.139 270C897.308 270 895.873 269.494 893.974 267.472ZM935.121 261.372C933.908 260.523 931.81 258.076 930.458 255.934C925.289 247.745 928.639 239 936.946 239C938.955 239 941.14 239.54 941.8 240.2C943.677 242.078 943.232 252.892 941.082 257.627C938.746 262.771 937.887 263.31 935.121 261.372ZM447.641 252.899C446.755 251.634 444.858 247.078 443.425 242.775C441.105 235.81 440.445 234.795 437.409 233.527C433.677 231.967 433.042 229.649 435.468 226.441C437.57 223.662 437.347 220.059 434.401 209.135C432.741 202.982 430.934 198.577 429.401 196.945C424.092 191.297 426.622 188.827 450.469 176.379C464.054 169.288 472.768 165.793 482.47 163.543C490.859 161.597 490.709 161.588 492.062 164.117C493.695 167.167 492.251 168.119 479.5 172.403C469.159 175.877 450.508 184.381 443.25 188.933C440.853 190.435 440.001 191.697 440.007 193.735C440.016 197.536 443.814 213.071 445.117 214.641C445.947 215.641 447.848 214.755 453.839 210.577C466.511 201.74 480.945 195.213 484.984 196.495C487.546 197.308 487.74 201.811 485.25 202.659C479.041 204.774 462.314 213.877 456 218.577C447.882 224.62 446.613 226.118 447.374 228.77C451.322 242.529 452.246 245 453.445 245C454.193 245 461.508 241.001 469.699 236.114C488.097 225.138 505.373 216.545 507.446 217.341C509.595 218.166 509.392 221.557 507.063 223.726C505.998 224.718 498.479 229.067 490.353 233.391C482.228 237.714 471.052 244.11 465.518 247.605C453.533 255.173 449.973 256.227 447.641 252.899ZM526.098 245.75C525.629 244.512 524.04 237.65 522.566 230.5C519.256 214.44 518.693 213 515.721 213C510.616 213 509.078 206.489 513.5 203.592C514.875 202.691 515.997 201.402 515.995 200.727C515.991 199.341 506.503 174.318 502.891 166.16C500.569 160.917 500.561 160.794 502.454 159.41C503.514 158.634 504.781 158 505.268 158C506.611 158 511.283 163.177 513.203 166.792C514.309 168.874 515.658 170 517.049 170C518.227 170 525.311 167.257 532.792 163.905C548.502 156.865 557.624 154.581 567.04 155.329C578.87 156.269 587.195 161.657 585.427 167.23C583.203 174.237 577.197 178.612 552.109 191.5C541.402 197 532.708 201.934 532.788 202.465C532.868 202.995 539.361 204.426 547.216 205.644C563.858 208.223 576.686 212.253 590.081 219.109C600.344 224.361 604.622 227.935 603.658 230.449C602.664 233.037 599.451 232.242 588.233 226.633C570.262 217.646 556.272 213.692 537.871 212.399C529.967 211.843 528.221 211.98 527.756 213.192C527.131 214.822 527.877 219.623 531.095 234.675C532.292 240.271 532.999 245.559 532.667 246.425C531.723 248.884 527.105 248.41 526.098 245.75ZM534.272 191.869C556.824 180.547 575 168.963 575 165.911C575 162.402 561.73 161.913 551.581 165.047C541.534 168.151 520 178.788 520 180.647C520 182.393 522.916 194.055 523.648 195.241C524.456 196.547 525.81 196.117 534.272 191.869Z" fill="#71ACEC"/>
<path d="M18.1839 471.729C21.2306 460.687 21.651 464.754 19.1155 480.745C15.2956 504.837 14.4987 517.456 14.5247 553.5C14.5591 601.258 16.4361 621.04 25.0071 664C34.7905 713.036 50.3332 758.636 72.6097 803.656C93.8218 846.526 119.324 885.747 148.881 920.959C162.107 936.716 200.145 975.281 213.5 986.477C255.984 1022.09 293.026 1047.51 327.725 1064.87C380.373 1091.22 446.385 1109.53 516 1117.11C543.896 1120.15 603.692 1120.88 632.242 1118.53C691.179 1113.68 740.672 1103.8 795.472 1085.93C838.087 1072.03 875.86 1056.06 908.222 1038.26C914.669 1034.72 920.402 1031.97 920.961 1032.16C921.519 1032.35 919.394 1034.5 916.239 1036.95C879.821 1065.19 852.91 1082.27 817.102 1099.88C754.603 1130.61 680.978 1152.49 606.621 1162.44C568.45 1167.55 520.526 1169.95 489.5 1168.3C472.497 1167.41 443.437 1164.78 435.5 1163.43C369.662 1152.23 335.865 1142 287.9 1118.76C262.734 1106.57 252.462 1100.69 230.308 1085.82C211.681 1073.31 208.731 1071 185 1050.39C149.366 1019.45 124.526 990.995 97.0745 949.679C66.2221 903.243 40.8477 847.645 24.6556 791C0.971323 708.145 -5.31713 628.15 4.99247 540.869C6.38932 529.043 15.3985 481.823 18.1839 471.729Z" fill="#FFE13D"/>
<path d="M647.135 958.453C652.457 957.795 655.004 959.124 653.404 961.722C652.801 962.7 651.001 963.95 649.404 964.5C644.465 966.201 644.031 965.369 644 985.296V1023.23L657 1021.84V1024.86C657 1026.52 656.535 1028.17 655.968 1028.52C652.784 1030.49 628.636 1032.7 625.25 1031.34C624.563 1031.06 624 1029.98 624 1028.93C624 1027.47 624.963 1026.87 628.085 1026.37C630.332 1026.01 632.321 1025.22 632.504 1024.61C632.688 1024 633.066 1010.82 633.344 995.321L633.851 967.143L626.175 967.321C619.183 967.484 618.477 967.322 618.244 965.5C617.775 961.832 619.342 961.174 631.146 960.075C637.539 959.48 644.734 958.75 647.135 958.453Z" fill="#FFE13D"/>
<path d="M720.339 955.456C741.07 949.781 747.361 948.893 748.362 951.5C749.966 955.681 748 956.599 722.5 963.581C702.52 969.052 693.979 972.008 684.705 976.661C674.349 981.858 674.593 984.559 685.735 988C692.95 990.229 698.14 990.68 731.5 991.979C758.745 993.039 763.296 993.849 768.889 998.637C774.189 1003.17 774.212 1005.73 769.002 1011.38C762.372 1018.57 748.631 1024.62 730 1028.53C721.702 1030.27 688.567 1031.31 678.5 1030.15C667.92 1028.92 663.34 1025.04 669.176 1022.24C671.247 1021.25 673.849 1021.19 680.676 1021.97C705.948 1024.87 731.541 1021.72 748.5 1013.63C758.011 1009.09 760.839 1006.72 759.152 1004.68C756.582 1001.59 747.878 1000.68 714.5 1000.04C683.029 999.444 681.226 999.306 675.581 997.072C672.326 995.784 667.714 992.933 665.331 990.737C659.414 985.283 659.485 982.504 665.681 977.05C673.912 969.804 687.421 964.467 720.339 955.456Z" fill="#FFE13D"/>
<path d="M452.984 269.616C451.763 271.084 451.604 273.283 451.86 281.94C452.325 297.615 450.745 301.335 447.694 291.75C445.572 285.085 442.465 280 440.514 280C437.945 280 438.231 282.278 445.102 316.5C448.542 333.631 448.552 333.315 443.994 350.093C433.756 387.783 431.69 396.374 428.931 412.741C427.319 422.306 426 431.662 426 433.531C426 437.581 429.144 441.485 438.557 449.122C442.768 452.539 444.993 455.068 444.982 456.425C444.959 459.111 437.53 469.098 433.5 471.859C431.782 473.037 429.357 474 428.111 474C424.998 474 420 468.79 420 465.545C420 462.074 417.471 461.266 414.172 463.684C407.541 468.543 405.902 480.398 410.566 489.757C414.072 496.793 423.176 505.024 430.589 507.861C447.551 514.352 464.333 509.998 477.606 495.662L483.996 488.76L487.748 491.542C496.646 498.142 525.967 529.45 541.09 548.5C562.916 575.995 573.201 599.975 567.714 610.584C566.865 612.227 560.394 619.405 553.335 626.536C532.643 647.436 530.686 652.355 518.554 714C509.639 759.294 505.323 774.809 498.243 787C495.497 791.728 486.325 801.998 484.846 802C484.372 802 480.812 799.337 476.935 796.082C463.049 784.422 450.452 779.589 402.5 767.518C370.538 759.473 363.402 757.129 359.754 753.482C358.405 752.132 353.106 742.897 347.978 732.958C337.698 713.034 334.784 709.477 329.614 710.542C324.306 711.634 319.585 715.444 300.045 734.404C289.648 744.492 277.912 755.616 273.964 759.123C264.194 767.804 251.473 782.436 248.471 788.446C245.391 794.612 245.343 798.034 248.298 800.81C252.78 805.021 255.685 804.691 267.25 798.654C285.549 789.1 294.013 787.949 311.621 792.62C327.732 796.895 326.8 796.982 333.196 790.586C336.268 787.514 339.301 785 339.935 785C342.276 785.001 388.984 809.154 403.5 817.87C423.008 829.583 428.843 834.333 435.252 843.715C442.884 854.888 447.047 859.13 458.738 867.651C471.756 877.137 478.09 879.435 489 878.627C498.324 877.937 505.131 875.938 511.143 872.125C520.236 866.357 545.799 835.332 566.267 805.222C572.353 796.269 577.795 789.099 578.361 789.287C579.915 789.805 580.716 793.639 583.944 816C587.343 839.54 589.395 859.552 588.549 860.919C588.227 861.438 582.461 864.546 575.734 867.828C562.635 874.218 551.625 881.88 547.882 887.211C540.524 897.691 517.818 924.847 509.726 932.846L500.27 942.191L489.385 938.197C470.216 931.164 468.168 930.717 464.619 932.79C460.179 935.383 458.043 939.799 456.434 949.711C454.573 961.173 454.621 965.088 456.721 973.283C458.386 979.779 458.383 980.267 456.64 984.783C453.303 993.431 451.784 1002.94 452.102 1013C451.788 1004.67 452.609 996.669 454.537 990C454.913 988.699 452.023 988.498 432.736 988.488C410.674 988.477 402.257 987.762 378.5 983.88C330.591 976.05 282.524 952.867 253.491 923.586C223.742 893.584 208.922 864.032 199.286 815.5C197.005 804.009 196.698 754.325 198.829 741.5C207.943 686.648 222.156 647.125 256.908 580C266.162 562.125 276.941 541.782 280.861 534.793C302.195 496.756 323.015 455.08 335.46 425.5C340.783 412.85 347.415 397.1 350.199 390.5C365.754 353.617 380.102 330.897 401.101 309.898C411.972 299.027 429.577 284.571 435 282.061C438.965 280.225 446.692 274.929 451.771 270.564C452.192 270.202 452.597 269.886 452.984 269.616Z" fill="#FFE13D"/>
<path d="M512.587 987.434C512.366 988.254 512.003 989.07 511.513 989.867C511.586 989.731 511.657 989.593 511.724 989.452C512.108 988.647 512.395 988.009 512.587 987.434Z" fill="#FFE13D"/>
<path d="M535.859 88.9502C563.856 87.066 606.975 89.6034 640 95.0791C704.638 105.796 767.629 129.868 824.975 165.765C839.325 174.747 855.769 186.332 865.337 194.2C868.548 196.84 871.785 199 872.531 199C873.276 199 874.555 199.954 875.371 201.12C876.189 202.286 880.376 206.143 884.678 209.691C888.98 213.24 900.488 224.005 910.25 233.614L928 251.085V248.401C928.065 250.779 928.848 253.383 930.458 255.934C931.81 258.076 933.908 260.523 935.121 261.372C937.051 262.724 938.051 262.869 939.273 261.088C938.154 263.52 938.485 263.887 940.028 265.529C941.112 266.684 942 268.093 942 268.662C942 269.231 943.892 270.55 946.205 271.593C949.676 273.158 953.141 275.834 956.243 279.151C956.181 279.088 956.118 279.024 956.055 278.96C949.344 272.249 944.235 269.896 935.001 269.263C925.933 268.641 914.248 271.589 908.086 276.052C902.269 280.266 897.306 288.989 895.15 297.919C895.384 296.878 895.658 295.841 895.976 294.812C898.132 287.832 902.78 280.104 906.658 277.055C909.035 275.185 909.062 275.025 907.446 272.558C906.033 270.403 905.015 270 900.974 270C897.911 270 896.555 269.764 895.149 268.561C896.591 269.683 898.12 270 901.139 270C906.488 270 908 268.48 908 263.1C908 255.764 893.967 246.298 891.173 251.75C890.717 252.641 890.538 254.092 890.577 255.773C890.245 254.901 889.679 254.376 888.749 253.887C887.512 253.235 882.94 249.732 878.591 246.102C826.538 202.653 765.132 172.365 701.999 159.001C685.766 155.565 648.363 149.737 626.999 147.314C615.334 145.992 603.583 145.561 579.5 145.574C536.287 145.599 515.801 147.936 480.453 156.872C441.832 166.636 413.909 176.898 378.296 194.412C327.503 219.392 280.337 255.913 242.577 299.5C228.733 315.481 207.099 344.096 200.878 354.655C198.336 358.97 194.149 366.1 191.573 370.5C185.276 381.253 164.803 422.766 161.49 431.5C144.09 477.363 135.995 513.899 131.559 566.599C130.721 576.553 129.574 587.95 129.01 591.926C126.699 608.218 125.928 627.982 126.966 644.277C130.076 693.09 140.106 746.402 154.004 788C168.94 832.703 183.228 859.47 214.058 900.503C231.414 923.604 233.217 925.621 262.294 954.505C298.829 990.797 299.892 991.997 288.197 983.75C272.335 972.566 259.594 962.026 242.197 945.697C181.519 888.748 139.581 826.164 110.722 749.5C102.271 727.049 99.6279 718.68 94.6145 698.5C86.5347 665.976 81.7666 635.999 79.4251 603C77.9972 582.876 77.926 576.268 78.927 557C81.6416 504.753 86.3474 477.002 101.125 426.104C115.908 375.19 149.336 311.875 184.185 268.784C243.791 195.081 318.836 142.797 407.638 113.103C448.094 99.5747 487.065 92.234 535.859 88.9502Z" fill="#FFE13D"/>
<path d="M794.468 349.558C793.783 350.262 793.049 351.017 792.266 351.829C783.214 361.207 781.37 363.595 782.766 364.124C786.935 365.702 821.497 405.306 838.232 427.682C856.523 452.139 863.015 461.667 875.237 482C892.379 510.519 902.354 531.944 912.019 561C923.03 594.104 926.168 612.569 926.721 647.5C927.111 672.122 926.995 674.268 924.529 688C918.171 723.398 908.573 747.909 890.659 774.5C880.762 789.189 859.542 810.925 841.5 824.854C804.275 853.592 730.541 898.218 671.495 927.746C635.899 945.547 609.665 956.372 578 966.322C550.429 974.986 522.314 982 515.156 982C512.666 982 512.339 982.321 512.731 984.372C512.781 984.637 512.813 984.903 512.829 985.172C512.702 984.164 512.291 982.931 511.587 980.972C510.598 978.223 510.06 974.896 510.39 973.579C511.088 970.801 522.016 960.458 530 955.021C534.43 952.004 555.96 938.748 580.993 923.626C584 921.809 586.71 921.423 600.493 920.848C618.837 920.083 625.447 918.465 634.338 912.564C641.317 907.931 644.522 904.199 648.133 896.5C651.817 888.646 652.433 882.397 655.124 825.561C656.953 786.94 657.168 774.594 656.472 748.061C656.016 730.702 655.611 706.83 655.572 695.01L655.5 673.521L660.283 672.646C665.891 671.621 667.132 669.841 669.595 659.29C671.783 649.915 671.634 637.028 669.147 620.5C666.582 603.457 665.363 589.861 663.99 562.973C663.127 546.071 663.218 539.29 664.508 524.568C665.369 514.735 666.304 506.316 666.586 505.86C666.867 505.403 665.725 499.923 664.049 493.683C662.372 487.441 661 481.329 661 480.101C661 476.979 677.843 458.099 694.674 442.356C702.233 435.285 712.936 425.202 718.459 419.948C723.981 414.695 735.25 404.832 743.5 398.03C751.759 391.221 768.611 375.477 781 362.996C786.796 357.156 791.138 352.808 794.468 349.558Z" fill="#FFE13D"/>
<path fill-rule="evenodd" clip-rule="evenodd" d="M913.332 841.405C918.149 839.79 918.174 839.794 920.847 842.354C922.322 843.767 925.448 845.6 927.793 846.428C934.347 848.74 942.871 854.857 946.603 859.926C952.255 867.602 954.223 874.168 953.835 884.057C953.539 891.609 953.047 893.528 949.639 900.42C947.053 905.649 943.476 910.653 938.806 915.568C931.004 923.782 926.408 926.824 916.961 930.029C908.355 932.949 896.151 932.425 887.998 928.786C878.438 924.518 871.617 914.204 870.352 902.098C869.942 898.175 869.391 896.354 868.866 897.184C867.504 899.331 867.866 903.777 870.492 917.184C873.407 932.069 875.466 959.889 874.024 964.917C872.792 969.212 870.261 972 867.595 972.001C866.275 972.001 862.355 968.764 856.999 963.251C840.761 946.535 828.638 925.918 831.112 919.229C832.182 916.334 835.555 916.346 837.326 919.251C838.082 920.489 841.11 925.929 844.057 931.341C850.18 942.587 861.256 956.288 863.829 955.8C866.965 955.205 866.657 950.655 860.839 911.501C859.567 902.937 860.309 894.422 862.543 891.953C863.46 890.94 865.598 889.975 867.295 889.807C870.084 889.53 870.503 889.024 871.639 884.548C876.438 865.649 893.411 848.085 913.332 841.405ZM937.978 865.21C931.066 856.53 917.879 851.509 912.559 855.532C911.491 856.34 909.106 857 907.259 857C902.395 857 898.941 859.145 892.696 866.047C882.794 876.988 876.817 892.201 878.438 902.337C879.805 910.889 885.707 918.188 893.126 920.502C899.214 922.401 910.925 922.34 916.715 920.38C923.107 918.215 928.123 914.087 933.475 906.587C938.446 899.62 943.696 889.115 944.595 884.334C945.502 879.514 942.531 870.929 937.978 865.21Z" fill="#FFE13D"/>
<path d="M1005.58 780.316C1008.23 778.378 1011 780.406 1011 784.285C1010.99 787.835 1007.38 802.118 1003.35 814.5C996.216 836.393 980.281 860.999 973.233 861C972.665 861 969.882 859.439 967.047 857.531C964.212 855.624 959.555 852.091 956.697 849.682C949.387 843.519 937.893 835.985 926.569 829.935C917.242 824.951 916.902 824.65 917.196 821.632C917.947 813.905 929.687 818.494 958.387 837.731L975.492 849.196L978.614 845.584C985.845 837.218 992.118 822.768 999.04 798.527C1001.99 788.207 1004.55 781.07 1005.58 780.316Z" fill="#FFE13D"/>
<path d="M1020.65 708.543C1021.35 685.957 1021.66 684.679 1025.94 686.968C1028.41 688.291 1029 692.163 1029 707.164C1029 730.374 1025.28 752.818 1019.2 766.211C1015.06 775.346 1012.52 777.246 1007 775.317C1006.18 775.029 1000.42 772.347 994.221 769.357C982.054 763.494 969.97 759.25 957.891 756.598C948.086 754.444 946.166 753.125 947.755 749.637C948.407 748.207 950.11 746.76 951.573 746.393C956.224 745.225 970.91 748.918 990.257 756.121C1000.61 759.976 1009.83 762.986 1010.75 762.811C1012.87 762.401 1017.42 748.434 1018.9 737.744C1019.5 733.481 1020.28 720.34 1020.65 708.543Z" fill="#FFE13D"/>
<path fill-rule="evenodd" clip-rule="evenodd" d="M965.827 294.62C966.353 296.077 966.779 297.536 967.088 298.979C967.931 302.91 968.586 304 970.104 304C971.263 304 972.523 305.106 973.237 306.75C973.893 308.263 978.549 315.8 983.583 323.5C988.618 331.2 995.006 342.023 997.779 347.553C1000.55 353.082 1003.54 358.2 1004.41 358.926C1005.28 359.651 1006 360.79 1006 361.456C1006 362.123 1007.75 366.005 1009.9 370.083C1014.47 378.788 1028.72 412.234 1033.69 425.946C1046.81 462.106 1057.12 508.575 1060.55 547C1064.51 591.412 1064.63 603.949 1061.4 639.993C1059.39 662.572 1055.56 688.441 1053.97 690.312C1053.59 690.759 1053.49 675.459 1053.76 656.312C1054.05 635.64 1053.79 614.595 1053.13 604.5C1047.68 521.803 1024.23 443.302 983.938 372.844C976.987 360.69 965.154 342.058 960.292 335.612L958.531 333.276L955.074 336.189C958.221 333.256 960.623 329.768 962.668 325.342C967.74 314.363 968.765 303.934 965.827 294.62ZM974.039 331C971.156 331 971 331.207 971 335.032C971 340.331 973.088 345.138 976.585 347.889C978.588 349.464 980.155 349.93 981.956 349.485C985.163 348.694 990 344.162 990 341.949C990 338.033 979.748 331 974.039 331Z" fill="#FFE13D"/>
<path d="M1000.55 584.618C1001.58 584.222 1003.04 584.633 1004.15 585.632C1011.53 592.313 1027.45 647.008 1028.74 670.136L1029.28 679.771L1026.53 681.57C1024.05 683.199 1023.01 683.257 1015.59 682.185C1004.86 680.633 1005.1 680.607 1004 683.5C1002.98 686.175 999.689 686.901 998.326 684.75C997.891 684.063 996.852 682.183 996.018 680.573C994.713 678.056 993.451 677.401 987 675.896C975.116 673.122 970.224 672.665 966.95 674.021C962.902 675.698 961.418 674.235 960.571 667.732C960.195 664.854 957.63 653.05 954.871 641.5C946.872 608.012 945.372 600.227 946.668 598.931C949.07 596.529 951.821 598.95 953.9 605.297C956.291 612.598 961.041 631.39 964.061 645.5C967.601 662.044 967.041 661.368 978.831 663.326C984.373 664.247 989.427 665 990.064 665C991.752 665 991.034 661.249 984.544 636.155C979.793 617.784 978.96 613.383 979.861 611.405C981.373 608.086 984.479 608.327 985.95 611.877C986.605 613.459 990.188 626.622 993.912 641.127L1000.68 667.5L1004.53 668.784C1006.64 669.491 1010.99 670.342 1014.18 670.677L1020 671.285L1020 666.393C1020 655.88 1013.16 627.951 1004.95 604.98C998.638 587.299 998.249 585.502 1000.55 584.618Z" fill="#FFE13D"/>
<path d="M920.359 528.508C921.599 525.277 929.495 527.443 958.7 539.022L966.899 542.273L977.085 538.615C982.687 536.603 990.666 534.067 994.815 532.98C1001.47 531.236 1002.62 531.174 1004.56 532.445C1007.33 534.262 1008.6 538.845 1006.81 540.583C1006.09 541.282 999.258 543.711 991.631 545.981C984.004 548.252 976.777 550.756 975.571 551.546C974.365 552.336 972.318 554.899 971.021 557.241C966.486 565.433 948.832 591.019 947.062 591.967C945.703 592.694 944.765 592.378 943.138 590.646C941.962 589.395 941 587.757 941 587.006C941.001 586.254 944.996 579.533 949.879 572.07C958.822 558.403 962 552.913 962 551.132C961.996 550.598 953.188 546.685 942.424 542.433C922.67 534.629 918.918 532.261 920.359 528.508Z" fill="#FFE13D"/>
<path d="M518.446 451C519.113 451 523.223 453.038 527.579 455.53C531.935 458.021 537.525 460.656 540 461.384C542.55 462.135 544.5 463.314 544.5 464.105C544.5 466.211 535.607 466.229 528.5 464.136C520.423 461.758 515.998 459.308 516.013 457.224C516.039 454.033 517.224 451 518.446 451Z" fill="#FFE13D"/>
<path d="M516.5 234C517.798 240.12 525.688 244.667 526.098 245.75C527.105 248.41 531.723 248.884 532.667 246.425C532.873 245.886 532.677 243.636 532.212 240.667L533.407 246.5L555.453 246.59C576.249 246.675 578.31 246.858 591.782 249.805C609.375 253.653 624.787 258.753 645 267.417C681.73 283.161 716.734 305.007 750.433 333.218L765.366 345.719L773.433 340.509C778.816 337.032 787.551 331.057 795.986 325.159C787.933 330.805 779.163 336.851 772 341.651C766.775 345.151 760.475 349.431 758 351.162C755.525 352.892 748.325 357.925 742 362.347C727.148 372.73 703.388 391.199 684.5 407.043C668.43 420.523 663.011 423.114 638.5 429.039C631.35 430.768 618.175 435.085 609.223 438.633C600.097 442.25 592.41 444.757 591.723 444.339C590.267 443.452 586.983 439.495 585.285 436.583C584.617 435.437 584.054 432.39 584.035 429.811C584.004 425.752 584.537 424.5 588 420.5C590.2 417.958 592 415.56 592 415.171C591.999 414.781 590.943 412.897 589.652 410.982C588.361 409.067 587.06 405.636 586.762 403.358C586.463 401.08 585.045 397.488 583.609 395.376C582.174 393.264 580.993 390.403 580.986 389.018C580.957 383.772 579.882 382.045 575.988 380.997C571.902 379.897 571.003 378.575 570.996 373.668C570.988 367.064 564.483 360.425 554.629 356.961C547.511 354.459 542.469 354.484 534.832 357.057C523.318 360.935 515.837 367.109 504.609 382C494.618 395.249 493.73 404.3 500.844 420.382C502.029 423.061 502.999 425.603 503 426.033C503 426.461 499.737 426.753 495.75 426.682C488.285 426.549 488.371 426.52 477.106 432.962C473.337 435.117 471.565 434.619 465.593 429.722L462.687 427.339L463.897 408.419C465.372 385.358 467.79 356.71 468.976 348.236C469.924 341.462 470.033 341.283 480.655 328.997C490.759 317.311 490.939 316.88 487.969 311.444C485.193 306.363 483.904 305.97 481.592 309.5C480.691 310.875 479.298 312 478.497 312C477.277 312 476.996 308.63 476.77 291.25L476.5 270.5H473.5C470.595 270.5 470.48 270.322 469.897 264.892C469.671 262.791 469.456 261.234 469.179 260.085L470.147 262.86L479.621 259.431C491.297 255.204 508.954 250.52 519.177 248.938C526.394 247.82 526.806 247.621 526.05 245.624C525.663 244.6 517.792 240.105 516.499 233.997L516.5 234Z" fill="#FFE13D"/>
</svg>
