<svg width="1182" height="1200" viewBox="0 0 1182 1200" fill="none" xmlns="http://www.w3.org/2000/svg">
<path d="M569.486 1133.3C568.451 1132.89 565.395 1132.53 562.696 1132.49C555.327 1132.38 513.339 1127.56 499.466 1125.23C474.474 1121.03 463.368 1118.71 454.547 1115.85C449.56 1114.23 444.888 1112.91 444.166 1112.91C443.443 1112.91 438.527 1111.52 433.241 1109.83C427.956 1108.13 422.956 1106.75 422.13 1106.75C419.323 1106.75 408.531 1101.34 408.531 1099.93C408.531 1098.05 409.546 1098.16 415.396 1100.66C418.132 1101.83 423.383 1103.47 427.064 1104.31C430.745 1105.15 436.305 1106.69 439.419 1107.73C458.997 1114.27 471.543 1116.9 513.55 1123.29C532.769 1126.21 537.558 1126.54 567.089 1127.03C601.042 1127.59 618.443 1126.75 648.943 1123.09C706.285 1116.21 764.442 1099.28 817.759 1073.97C906.828 1031.68 983.428 965.83 1037.03 885.464C1053.14 861.307 1056.85 854.967 1070.67 827.961C1094.83 780.722 1111.74 730.44 1120.38 680.097C1124.22 657.731 1125.91 642.317 1127.76 612.918C1129.26 588.997 1129.26 584.743 1127.75 562.09C1124.25 509.636 1117.24 472.399 1101.95 424.929C1093.57 398.906 1089.43 388.627 1075.27 358.698C1068.61 344.627 1050.22 312.096 1045.72 306.452C1043.53 303.696 1041.73 300.796 1041.73 300.009C1041.73 299.222 1040.58 298.138 1039.16 297.602C1037.4 296.932 1036.59 295.846 1036.59 294.146C1036.59 291.344 1028.01 279.125 1026.04 279.106C1025.33 279.099 1021.04 274.184 1016.51 268.184C1002.44 249.547 973.243 219.211 947.701 196.684C909.58 163.063 854.716 129.094 805.583 108.69C760.028 89.773 714.272 77.4981 667.475 71.6403C662.379 71.0023 653.344 69.8286 647.398 69.032C622.155 65.6501 609.724 65.1422 582.954 66.399C499.361 70.3235 430.769 87.0701 361.684 120.421C334.055 133.759 304.626 150.705 287.038 163.405C237.065 199.488 208.561 225.577 175.199 265.77C161.603 282.15 130.539 325.857 130.539 328.607C130.539 329.137 129.437 331.041 128.089 332.839C124.475 337.661 107.888 368.758 107.888 370.711C107.888 371.634 107.443 372.543 106.899 372.732C105.219 373.313 92.0019 402.969 85.4011 420.967C76.6061 444.948 67.7603 475.16 63.6474 495.267C63.1853 497.526 62.084 502.652 61.2 506.659C59.1002 516.175 55.8303 539.381 53.6896 559.958C52.5179 571.22 52.0019 585.107 52.0489 604.112C52.286 699.92 76.1286 786.999 124.867 870.061C152.721 917.531 186.365 958.013 227.634 993.717C242.618 1006.68 249.133 1011.94 258.724 1018.84C260.348 1020 260.519 1020.59 259.533 1021.6C257.962 1023.21 251.365 1019 237.491 1007.52C210.477 985.179 184.399 959.498 167.28 938.382C163.83 934.127 158.077 927.343 154.494 923.307C147.24 915.134 146.329 913.926 135.054 897.529C130.684 891.176 126.757 885.977 126.326 885.977C125.895 885.977 124.886 884.707 124.083 883.154C123.281 881.601 117.256 871.02 110.693 859.641C94.1799 831.007 85.4287 814.057 78.1669 796.643C51.5986 732.93 38.2023 676.589 33.7732 609.934C29.7497 549.384 37.6318 478.618 54.8941 420.308C58.0708 409.578 61.2933 398.12 62.0553 394.847C62.8173 391.574 63.8829 388.34 64.4232 387.66C64.9635 386.979 67.0434 382.033 69.0452 376.668C87.4585 327.315 119.128 270.491 152.026 227.777C179.063 192.673 215.519 155.747 252.154 126.359C319.675 72.1944 406.41 31.2696 492.958 12.7384C540.034 2.65885 575.077 -0.668258 625.988 0.107989C661.598 0.650938 676.801 1.80224 704.541 6.05668C809.71 22.1863 909.437 67.9663 990.255 137.214C1035.29 175.8 1072.58 220.057 1103.77 271.931C1147.5 344.653 1173.18 425.191 1180.86 513.75C1182.39 531.3 1182.38 586.303 1180.85 602.571C1173.33 682.47 1153.82 749.643 1118.21 818.206C1085.95 880.32 1042.61 936.06 989.741 983.398C918.68 1047.03 835.46 1091.31 742.303 1115.05C704.712 1124.64 659.613 1131.41 623.005 1132.96C601.016 1133.9 571.484 1134.09 569.486 1133.3ZM475.614 1073.35C471.319 1069.75 468.465 1063.33 466.667 1053.24C463.951 1037.99 465.064 1023.62 469.936 1011.03C471.731 1006.39 471.734 1005.89 470.021 999.22C467.858 990.805 467.809 986.785 469.724 975.016C471.381 964.837 473.58 960.303 478.152 957.64C481.806 955.512 483.915 955.971 503.651 963.193L514.858 967.294L524.594 957.697C532.926 949.484 556.304 921.6 563.88 910.838C567.733 905.364 579.069 897.496 592.556 890.935C599.484 887.564 605.422 884.372 605.751 883.841C606.621 882.437 604.509 861.888 601.009 837.716C597.685 814.755 596.86 810.818 595.261 810.287C594.678 810.093 589.074 817.456 582.808 826.649C561.735 857.567 535.415 889.424 526.053 895.347C519.863 899.262 512.854 901.315 503.254 902.024C492.021 902.853 485.5 900.494 472.097 890.753C460.06 882.004 455.773 877.648 447.915 866.175C441.317 856.541 435.309 851.664 415.223 839.636C400.278 830.686 352.186 805.884 349.777 805.884C349.124 805.884 346.002 808.466 342.838 811.621C336.253 818.188 337.213 818.098 320.626 813.709C302.496 808.913 293.781 810.094 274.94 819.904C263.034 826.104 260.043 826.443 255.428 822.119C252.385 819.268 252.434 815.754 255.605 809.423C258.697 803.252 271.794 788.227 281.854 779.313C285.918 775.712 298.002 764.29 308.706 753.931C328.825 734.462 333.686 730.55 339.151 729.428C344.474 728.335 347.474 731.987 358.059 752.446C363.339 762.653 368.795 772.136 370.183 773.521C373.939 777.266 381.286 779.672 414.194 787.933C463.566 800.328 476.535 805.291 490.833 817.264C494.824 820.606 498.489 823.341 498.978 823.341C500.499 823.341 509.944 812.793 512.771 807.938C520.06 795.42 524.505 779.489 533.683 732.979C546.175 669.681 548.189 664.629 569.494 643.168C576.762 635.846 583.424 628.475 584.299 626.789C589.947 615.895 579.359 591.271 556.886 563.038C541.316 543.477 511.127 511.329 501.965 504.552L498.103 501.695L491.523 508.783C477.858 523.503 460.579 527.974 443.115 521.309C435.482 518.396 426.109 509.944 422.499 502.719C417.697 493.109 419.385 480.935 426.211 475.946C429.608 473.464 432.212 474.293 432.212 477.858C432.212 481.189 437.358 486.539 440.563 486.539C441.846 486.539 444.343 485.55 446.112 484.341C450.261 481.506 457.91 471.251 457.933 468.492C457.946 467.099 455.654 464.502 451.319 460.994C441.627 453.152 438.389 449.142 438.389 444.984C438.389 443.065 439.748 433.458 441.408 423.636C444.248 406.83 446.375 398.009 456.917 359.307C461.609 342.079 461.599 342.403 458.057 324.813C450.982 289.67 450.688 287.333 453.334 287.333C455.342 287.333 458.541 292.555 460.726 299.399C463.867 309.24 465.494 305.421 465.016 289.325C464.731 279.744 464.943 277.867 466.485 276.33C468.702 274.119 471.497 275.482 472.405 279.216C472.958 281.491 473.061 281.412 473.715 278.22C474.106 276.314 474.425 272.825 474.425 270.467C474.425 265.658 475.8 263.716 479.204 263.716C482.207 263.716 482.838 264.882 483.586 271.82C484.187 277.396 484.304 277.578 487.295 277.578H490.384L490.662 298.885C490.896 316.731 491.184 320.192 492.44 320.192C493.265 320.192 494.699 319.037 495.627 317.625C498.008 314 499.335 314.404 502.193 319.621C505.251 325.203 505.066 325.646 494.663 337.645C483.726 350.26 483.614 350.445 482.638 357.401C481.416 366.102 478.927 395.519 477.408 419.199L476.162 438.626L479.155 441.073C485.303 446.101 487.128 446.613 491.008 444.4C502.607 437.785 502.519 437.815 510.204 437.951C514.309 438.024 517.669 437.724 517.669 437.284C517.669 436.845 516.67 434.234 515.45 431.482C508.125 414.968 509.039 405.675 519.325 392.07C530.886 376.78 538.588 370.44 550.443 366.458C558.306 363.816 563.498 363.791 570.826 366.359C580.972 369.916 587.669 376.734 587.677 383.515C587.685 388.553 588.61 389.91 592.817 391.04C596.826 392.117 597.934 393.89 597.963 399.276C597.971 400.698 599.186 403.636 600.664 405.805C602.142 407.974 603.603 411.663 603.91 414.002C604.217 416.341 605.556 419.864 606.886 421.83C608.215 423.797 609.303 425.732 609.303 426.132C609.303 426.531 607.45 428.993 605.185 431.603C601.62 435.711 601.071 436.996 601.103 441.164C601.122 443.812 601.702 446.942 602.39 448.118C604.138 451.109 607.519 455.172 609.018 456.083C609.724 456.512 617.639 453.938 627.036 450.223C636.253 446.58 649.818 442.147 657.179 440.372C682.416 434.288 687.995 431.627 704.541 417.785C723.988 401.516 748.451 382.552 763.743 371.89C770.255 367.35 777.668 362.181 780.216 360.404C782.765 358.628 789.251 354.233 794.631 350.638C812.609 338.626 840.414 319.018 843.394 316.252C846.741 313.146 855.78 301.25 861.119 292.927C864.652 287.419 867.911 285.694 869.074 288.715C869.366 289.476 868.46 292.826 867.06 296.16C865.66 299.494 863.859 303.986 863.057 306.141C862.254 308.296 860.643 311.397 859.476 313.032C858.308 314.667 856.471 318.56 855.394 321.683C853.124 328.263 845.828 338.889 839.932 344.201C837.181 346.68 834.402 348.116 831.452 348.584C827.402 349.226 825.275 351.076 803.897 372.556C791.142 385.373 773.791 401.539 765.287 408.531C756.793 415.515 745.191 425.642 739.505 431.037C733.819 436.431 722.799 446.785 715.016 454.046C697.688 470.212 680.345 489.598 680.345 492.803C680.345 494.065 681.758 500.341 683.485 506.75C685.211 513.16 686.387 518.786 686.097 519.255C685.807 519.723 684.844 528.367 683.957 538.464C682.629 553.581 682.535 560.544 683.424 577.9C684.838 605.509 686.093 619.469 688.734 636.97C691.295 653.942 691.448 667.175 689.195 676.801C686.659 687.635 685.382 689.463 679.607 690.516L674.682 691.414L674.757 713.48C674.798 725.616 675.215 750.13 675.684 767.954C676.4 795.199 676.179 807.876 674.296 847.534C671.525 905.895 670.891 912.311 667.098 920.376C663.38 928.282 660.08 932.114 652.894 936.871C643.74 942.931 636.935 944.592 618.047 945.378C603.857 945.968 601.067 946.364 597.97 948.23C572.197 963.758 550.029 977.369 545.468 980.468C537.248 986.051 525.996 996.671 525.278 999.524C524.938 1000.88 525.492 1004.29 526.51 1007.12C528.247 1011.93 528.256 1012.47 526.651 1015.82C525.468 1018.3 523.364 1020.2 519.818 1021.99C511.949 1025.96 508.02 1032.46 500.552 1053.86C496.539 1065.37 493.004 1071.99 489.625 1074.35C486.013 1076.88 479.238 1076.39 475.614 1073.35ZM560.397 476.378C560.397 475.566 558.389 474.356 555.764 473.585C553.216 472.837 547.461 470.131 542.976 467.573C538.49 465.015 534.259 462.922 533.572 462.922C532.314 462.922 531.094 466.036 531.068 469.313C531.052 471.453 535.608 473.968 543.923 476.41C551.241 478.559 560.397 478.541 560.397 476.378ZM250.423 577.494C248.706 576.241 248.728 575.74 250.859 567.553C252.093 562.811 254.481 553.617 256.165 547.122C262.275 523.563 264.08 502.271 260.357 497.691L258.386 495.267L254.383 499.461C247.084 507.108 241.565 519.744 233.06 548.283C228.935 562.124 221.316 571.778 215.639 570.357C211.911 569.424 209.018 564.772 206.81 556.164C202.144 537.97 201.877 521.947 205.821 496.811C209.147 475.611 211.932 467.029 215.485 467.029C218.189 467.029 218.217 471.572 215.584 483.204C209.492 510.119 208.354 532.859 212.395 546.96C216.162 560.106 219.701 556.418 230.904 527.667C238.515 508.134 244.033 497.62 249.811 491.641C254.094 487.209 255.274 486.541 258.792 486.555C263.727 486.574 264.643 487.133 266.884 491.493C272.34 502.112 267.923 538.096 257.073 571.42C254.872 578.179 253.314 579.602 250.423 577.494ZM262.843 466.513C262.276 466.319 254.666 464.246 245.931 461.907C226.284 456.646 224.233 455.669 224.233 451.568C224.233 449.804 224.879 448.234 225.742 447.904C226.572 447.586 232.016 448.719 237.84 450.42C258.097 456.339 268.718 458.93 271.435 458.617C273.37 458.393 274.694 457.252 275.969 454.707C280.919 444.825 274.977 427.199 258.644 403.315C248.859 389.006 247.882 386.512 250.886 383.515L253.097 381.311L257.455 383.623C264.703 387.467 290.22 408.602 295.488 415.124C301.159 422.144 302.186 426.983 298.006 426.983C295.441 426.983 280.757 415.225 278.824 411.623C277.605 409.35 270.759 403.856 270.04 404.573C269.783 404.83 271.236 408.475 273.269 412.674C279.019 424.545 283.862 437.636 285.593 445.983C287.056 453.041 287.041 453.877 285.387 457.354C284.405 459.418 281.757 462.439 279.503 464.068C276.093 466.531 274.434 467.016 269.638 466.948C266.467 466.904 263.409 466.708 262.843 466.513ZM302.997 403.307C301.865 402.843 293.756 396.522 284.979 389.26C268.518 375.64 266.24 372.633 270.017 369.507C271.379 368.38 272.438 368.669 276.762 371.35C279.582 373.098 281.89 374.109 281.89 373.595C281.89 373.081 280.307 369.056 278.371 364.652C271.366 348.715 271.182 339.535 277.72 332.238C280.441 329.2 281.198 328.943 288.52 328.574C293.91 328.303 298.647 328.76 303.535 330.025C307.463 331.041 310.941 331.608 311.264 331.286C311.587 330.964 309.696 325.918 307.062 320.074C301.063 306.762 299.537 300.16 301.415 295.64C303.207 291.325 307.769 288.993 312.646 289.899C318.128 290.918 332.73 298.761 341.776 305.546C352.501 313.59 370.417 329.216 371.176 331.188C371.831 332.891 370.471 335.754 368.732 336.332C368.159 336.523 362.895 332.741 357.034 327.928C351.173 323.116 342.177 316.194 337.043 312.547C326.622 305.144 311.379 297.074 309.733 298.088C307.051 299.742 308.909 305.872 318.026 325.441C323.555 337.308 324.711 343.307 321.828 345.174C320.429 346.08 318.421 345.54 312.047 342.543C301.651 337.655 298.053 336.634 290.223 336.345C284.535 336.136 283.542 336.394 281.803 338.532C276.42 345.149 282.74 362.005 300.052 387.205C304.786 394.097 308.66 400.305 308.66 401.001C308.66 402.906 305.33 404.262 302.997 403.307ZM941.046 382.78C937.485 381.355 935.212 375.108 936.588 370.527C938.808 363.136 948.499 357.092 951.232 361.394C952.66 363.643 952.3 374.345 950.665 378.248C949.786 380.347 948.063 382.235 946.48 382.835C945 383.397 943.703 383.826 943.598 383.791C943.494 383.755 942.345 383.3 941.046 382.78ZM980.272 379.793C971.616 374.529 970.388 362.572 978.096 358.597C984.019 355.543 987.536 359.335 988.727 370.059C989.501 377.029 988.143 381.804 985.39 381.798C984.385 381.796 982.082 380.894 980.272 379.793ZM907.39 369.098C907.097 368.179 906.621 366.684 906.333 365.776C905.406 362.863 907.962 355.899 911.109 352.76C913.767 350.109 914.703 349.785 918.313 350.268C925.64 351.248 928.571 355.802 925.313 361.145C921.466 367.454 908.676 373.13 907.39 369.098ZM1005.27 357.044C1001.67 354.219 999.521 349.283 999.521 343.842C999.521 339.914 999.682 339.702 1002.65 339.702C1008.53 339.702 1019.08 346.924 1019.08 350.945C1019.08 353.217 1014.1 357.87 1010.8 358.683C1008.95 359.14 1007.33 358.662 1005.27 357.044ZM947.012 353.349C939.973 350.929 931.59 344.805 927.792 339.309C923.462 333.043 920.242 322.7 920.242 315.058C920.242 303.247 926.704 289.089 934.746 283.279C941.09 278.696 953.121 275.67 962.457 276.308C971.964 276.958 977.224 279.374 984.135 286.266C996.963 299.06 999.349 315.747 990.943 333.891C986.913 342.591 981.544 347.768 972.002 352.156C964.543 355.586 954.862 356.048 947.012 353.349ZM891.648 334.527C888.511 333.271 887.899 331.262 889.334 326.926C890.859 322.318 895.592 318.927 900.684 318.794C910.401 318.54 914.416 331.428 905.577 334.501C901.808 335.811 894.886 335.824 891.648 334.527ZM370.193 315.352C369.279 314.343 362.687 305.677 355.542 296.093C342.427 278.501 341.204 275.882 345.029 273.576C346.625 272.614 347.586 273.214 351.443 277.578C356.49 283.291 356.603 283.064 354.493 271.417C351.768 256.378 352.885 248.02 358.293 242.982C364.168 237.508 374.607 239.435 388.941 248.641C392.04 250.631 394.894 252.063 395.283 251.823C395.673 251.583 395.31 248.5 394.477 244.973C391.821 233.718 391.028 228.662 391.028 222.969C391.028 215.735 393.975 212.374 400.319 212.374C405.949 212.374 410.634 215.692 422.992 228.429C435.042 240.849 454.863 268.096 454.863 272.239C454.863 274.057 450.943 275.677 449.771 274.343C449.349 273.863 444.053 266.918 438.003 258.909C421.185 236.649 405.287 220.589 400.069 220.589C398.12 220.589 398.018 221.016 398.642 226.519C399.012 229.78 400.503 237.52 401.955 243.718C405.41 258.46 406.049 264.317 404.417 266.278C402.23 268.906 400.038 268.039 392.572 261.594C385.1 255.144 370.94 247.287 366.787 247.287C356.373 247.287 358.108 268.439 371.113 300.012C375.735 311.234 376.443 316.321 373.461 316.884C372.577 317.051 371.106 316.362 370.193 315.352ZM1005.8 315.813C998.767 312.209 997.93 304.75 1004.26 302.112C1008.24 300.456 1016.73 300.232 1020.56 301.684C1025.93 303.719 1022.96 311.961 1015.61 315.441C1011.41 317.43 1009.12 317.517 1005.8 315.813ZM898.389 300.108C896.846 299.273 895.109 297.705 894.528 296.623C893.03 293.831 893.221 287.043 894.86 284.806C896.91 282.011 904.089 283.198 908.094 286.994C913.682 292.291 915.974 299.732 912.436 301.086C909.466 302.222 901.237 301.65 898.389 300.108ZM988.302 280.232C986.115 278.851 987.602 272.219 991.051 267.969C998.245 259.105 1003.7 258.365 1005.75 265.976C1007.31 271.743 1005.97 275.939 1001.65 278.843C998.065 281.254 991.072 281.982 988.302 280.232ZM920.215 274.469C917.505 271.592 915.702 261.498 917.332 258.325C920.208 252.727 934.657 262.447 934.657 269.98C934.657 275.504 933.101 277.065 927.593 277.065C923.648 277.065 922.171 276.545 920.215 274.469ZM962.581 268.206C961.332 267.334 959.172 264.821 957.78 262.621C952.457 254.213 955.907 245.233 964.459 245.233C966.529 245.233 968.778 245.788 969.457 246.465C971.39 248.393 970.932 259.497 968.718 264.359C966.313 269.642 965.429 270.196 962.581 268.206ZM460.672 259.505C459.759 258.206 457.806 253.528 456.33 249.109C453.942 241.958 453.262 240.915 450.137 239.613C446.294 238.012 445.64 235.631 448.138 232.337C450.302 229.484 450.073 225.784 447.039 214.567C445.33 208.248 443.47 203.725 441.891 202.05C436.425 196.25 439.03 193.713 463.583 180.932C477.57 173.651 486.542 170.062 496.531 167.751C505.169 165.754 505.014 165.744 506.407 168.34C508.088 171.473 506.602 172.451 493.473 176.849C482.827 180.416 463.624 189.149 456.15 193.822C453.683 195.365 452.806 196.66 452.811 198.754C452.821 202.656 456.731 218.608 458.073 220.221C458.927 221.248 460.884 220.338 467.053 216.048C480.1 206.973 494.961 200.271 499.12 201.587C501.757 202.422 501.957 207.046 499.393 207.917C493.001 210.089 475.778 219.436 469.277 224.262C460.919 230.467 459.613 232.006 460.397 234.729C464.461 248.857 465.413 251.394 466.647 251.394C467.418 251.394 474.949 247.288 483.382 242.27C502.325 230.999 520.112 222.176 522.247 222.993C524.459 223.84 524.25 227.322 521.853 229.549C520.756 230.568 513.014 235.034 504.648 239.473C496.282 243.912 484.775 250.481 479.077 254.069C466.738 261.84 463.072 262.923 460.672 259.505ZM541.451 252.164C540.968 250.893 539.332 243.847 537.815 236.505C534.406 220.014 533.826 218.535 530.767 218.535C525.51 218.535 523.927 211.85 528.479 208.875C529.895 207.95 531.051 206.626 531.048 205.933C531.044 204.51 521.276 178.815 517.557 170.438C515.167 165.054 515.158 164.928 517.107 163.507C518.199 162.711 519.502 162.06 520.004 162.06C521.387 162.06 526.198 167.375 528.174 171.087C529.313 173.225 530.702 174.382 532.134 174.382C533.347 174.382 540.641 171.565 548.343 168.123C564.518 160.894 573.91 158.549 583.605 159.317C595.785 160.282 604.357 165.815 602.535 171.537C600.246 178.732 594.062 183.225 568.231 196.458C557.208 202.106 548.256 207.173 548.339 207.717C548.421 208.262 555.106 209.731 563.194 210.982C580.329 213.631 593.537 217.768 607.328 224.808C617.894 230.201 622.299 233.871 621.306 236.453C620.283 239.11 616.975 238.294 605.425 232.534C586.922 223.306 572.518 219.246 553.572 217.918C545.435 217.347 543.637 217.488 543.158 218.733C542.514 220.407 543.282 225.336 546.596 240.792C547.828 246.539 548.556 251.968 548.214 252.857C547.242 255.383 542.488 254.895 541.451 252.164ZM549.867 196.838C573.087 185.212 591.8 173.317 591.8 170.183C591.8 166.58 578.137 166.077 567.688 169.296C557.343 172.483 535.172 183.405 535.172 185.315C535.172 187.107 538.174 199.082 538.929 200.3C539.76 201.641 541.154 201.2 549.867 196.838Z" fill="#9235E1"/>
<path d="M18.5024 484.207C21.6393 472.869 22.0721 477.045 19.4616 493.465C15.5287 518.203 14.7081 531.161 14.7349 568.172C14.7703 617.212 16.7029 637.525 25.5276 681.638C35.6006 731.989 51.6034 778.813 74.5392 825.041C96.3792 869.061 122.636 909.335 153.068 945.492C166.686 961.671 205.849 1001.27 219.6 1012.77C263.341 1049.33 301.48 1075.44 337.206 1093.27C391.412 1120.32 459.378 1139.12 531.054 1146.91C559.776 1150.03 621.341 1150.78 650.737 1148.36C711.418 1143.39 762.376 1133.24 818.798 1114.89C862.674 1100.62 901.566 1084.22 934.885 1065.94C941.523 1062.3 947.426 1059.48 948.002 1059.67C948.577 1059.87 946.389 1062.08 943.139 1064.6C905.644 1093.59 877.936 1111.14 841.068 1129.21C776.719 1160.77 700.915 1183.24 624.358 1193.45C585.056 1198.7 535.714 1201.16 503.77 1199.47C486.263 1198.55 456.343 1195.86 448.171 1194.47C380.384 1182.97 345.587 1172.47 296.202 1148.6C270.291 1136.08 259.715 1130.04 236.905 1114.77C217.727 1101.93 214.69 1099.56 190.257 1078.4C153.567 1046.62 127.992 1017.41 99.7282 974.982C67.9625 927.301 41.8371 870.21 25.1657 812.045C0.780379 726.968 -5.69421 644.826 4.92056 555.203C6.35875 543.06 15.6346 494.572 18.5024 484.207Z" fill="#FBCD00"/>
<path d="M666.07 983.992C671.55 983.316 674.173 984.681 672.525 987.348C671.904 988.353 670.05 989.636 668.406 990.201C663.321 991.947 662.875 991.093 662.843 1011.56V1050.51L676.228 1049.08V1052.18C676.228 1053.89 675.749 1055.58 675.165 1055.94C671.886 1057.96 647.023 1060.23 643.538 1058.83C642.83 1058.55 642.251 1057.43 642.251 1056.36C642.251 1054.86 643.242 1054.24 646.457 1053.73C648.77 1053.36 650.818 1052.55 651.007 1051.92C651.195 1051.3 651.585 1037.76 651.871 1021.85L652.393 992.915L644.49 993.098C637.291 993.265 636.565 993.099 636.325 991.228C635.842 987.462 637.455 986.786 649.608 985.658C656.19 985.047 663.599 984.297 666.07 983.992Z" fill="#FBCD00"/>
<path d="M741.441 980.915C762.786 975.087 769.263 974.175 770.293 976.852C771.945 981.146 769.921 982.089 743.666 989.258C723.095 994.875 714.301 997.91 704.753 1002.69C694.089 1008.02 694.341 1010.8 705.813 1014.33C713.242 1016.62 718.586 1017.08 752.933 1018.42C780.984 1019.51 785.67 1020.34 791.428 1025.25C796.886 1029.91 796.909 1032.54 791.545 1038.34C784.718 1045.73 770.57 1051.93 751.388 1055.95C742.844 1057.74 708.729 1058.81 698.364 1057.61C687.47 1056.35 682.755 1052.37 688.764 1049.49C690.896 1048.48 693.575 1048.41 700.604 1049.22C726.624 1052.19 752.975 1048.96 770.436 1040.65C780.229 1035.99 783.14 1033.55 781.403 1031.46C778.757 1028.28 769.795 1027.35 735.43 1026.7C703.026 1026.08 701.17 1025.94 695.359 1023.65C692.007 1022.32 687.258 1019.4 684.805 1017.14C678.713 1011.54 678.786 1008.69 685.165 1003.09C693.64 995.648 707.549 990.168 741.441 980.915Z" fill="#FBCD00"/>
<path d="M466.172 276.671C464.916 278.178 464.752 280.436 465.016 289.325C465.494 305.421 463.867 309.24 460.726 299.399C458.541 292.555 455.342 287.333 453.334 287.333C450.688 287.334 450.983 289.672 458.057 324.813C461.599 342.403 461.609 342.079 456.917 359.307C446.375 398.009 444.248 406.83 441.408 423.636C439.748 433.458 438.389 443.065 438.389 444.984C438.389 449.142 441.627 453.152 451.319 460.994C455.654 464.502 457.946 467.099 457.933 468.492C457.91 471.251 450.261 481.506 446.112 484.341C444.343 485.55 441.846 486.539 440.563 486.539C437.358 486.539 432.212 481.189 432.212 477.858C432.212 474.293 429.608 473.464 426.211 475.946C419.385 480.935 417.697 493.109 422.499 502.719C426.109 509.944 435.482 518.396 443.115 521.309C460.579 527.974 477.858 523.503 491.523 508.783L498.103 501.695L501.965 504.552C511.127 511.329 541.316 543.477 556.886 563.038C579.359 591.271 589.947 615.895 584.299 626.789C583.424 628.475 576.762 635.846 569.494 643.168C548.189 664.629 546.175 669.681 533.683 732.979C524.505 779.489 520.06 795.42 512.771 807.938C509.944 812.793 500.5 823.338 498.978 823.341C498.489 823.341 494.824 820.606 490.833 817.264C476.535 805.291 463.566 800.328 414.194 787.933C381.286 779.672 373.939 777.266 370.183 773.521C368.794 772.135 363.338 762.652 358.059 752.446C347.474 731.987 344.474 728.335 339.151 729.428C333.686 730.55 328.825 734.462 308.706 753.931C298.002 764.29 285.918 775.712 281.854 779.313C271.794 788.227 258.697 803.252 255.605 809.423C252.434 815.754 252.385 819.268 255.428 822.119C260.043 826.443 263.034 826.104 274.94 819.904C293.781 810.094 302.496 808.913 320.626 813.709C337.213 818.098 336.253 818.188 342.838 811.621C346.002 808.466 349.124 805.884 349.777 805.884C352.188 805.885 400.278 830.686 415.223 839.636C435.309 851.664 441.317 856.541 447.915 866.175C455.773 877.648 460.06 882.004 472.097 890.753C485.5 900.494 492.021 902.853 503.254 902.024C512.854 901.315 519.863 899.262 526.053 895.347C535.415 889.424 561.735 857.567 582.808 826.649C589.074 817.456 594.678 810.093 595.261 810.287C596.86 810.818 597.685 814.755 601.009 837.716C604.509 861.888 606.621 882.437 605.751 883.841C605.419 884.373 599.482 887.565 592.556 890.935C579.069 897.496 567.733 905.364 563.88 910.838C556.304 921.6 532.926 949.484 524.594 957.697L514.858 967.294L503.651 963.193C483.915 955.971 481.806 955.512 478.152 957.64C473.58 960.303 471.381 964.837 469.724 975.016C467.809 986.785 467.858 990.805 470.021 999.22C471.734 1005.89 471.731 1006.39 469.936 1011.03C466.5 1019.91 464.937 1029.67 465.264 1040C464.941 1031.45 465.787 1023.23 467.772 1016.39C468.159 1015.05 465.183 1014.84 445.325 1014.83C422.61 1014.82 413.944 1014.09 389.484 1010.1C340.156 1002.06 290.667 978.256 260.774 948.189C230.145 917.382 214.886 887.038 204.966 837.203C202.617 825.404 202.301 774.387 204.495 761.217C213.879 704.893 228.512 664.31 264.292 595.383C273.82 577.029 284.918 556.14 288.954 548.963C310.92 509.906 332.356 467.111 345.17 436.738C350.65 423.748 357.479 407.576 360.345 400.798C376.361 362.926 391.133 339.597 412.754 318.034C423.947 306.871 442.072 292.027 447.656 289.449C451.738 287.565 459.694 282.126 464.923 277.645C465.357 277.273 465.774 276.948 466.172 276.671Z" fill="#FBCD00"/>
<path d="M527.54 1013.75C527.312 1014.59 526.938 1015.43 526.434 1016.25C526.509 1016.11 526.582 1015.97 526.651 1015.82C527.046 1015 527.342 1014.34 527.54 1013.75Z" fill="#FBCD00"/>
<path d="M551.5 91.1568C580.327 89.2221 624.722 91.8275 658.724 97.4502C725.276 108.455 790.131 133.173 849.174 170.033C863.949 179.256 880.88 191.152 890.731 199.231C894.037 201.942 897.37 204.16 898.138 204.16C898.905 204.16 900.222 205.14 901.062 206.337C901.904 207.534 906.216 211.495 910.645 215.138C915.074 218.782 926.922 229.836 936.974 239.703L955.249 257.642V254.887C955.316 257.328 956.122 260.003 957.78 262.621C959.172 264.821 961.332 267.334 962.581 268.206C964.568 269.594 965.597 269.743 966.855 267.914C965.704 270.411 966.044 270.788 967.633 272.474C968.749 273.66 969.663 275.107 969.664 275.691C969.664 276.275 971.612 277.629 973.993 278.7C977.566 280.307 981.134 283.055 984.328 286.462C984.264 286.397 984.2 286.331 984.135 286.266C977.224 279.374 971.964 276.958 962.457 276.308C953.121 275.67 941.09 278.696 934.746 283.279C928.757 287.606 923.646 296.564 921.426 305.733C921.667 304.664 921.95 303.599 922.277 302.543C924.497 295.375 929.283 287.44 933.275 284.309C935.722 282.389 935.751 282.225 934.086 279.691C932.632 277.478 931.583 277.065 927.423 277.065C924.27 277.065 922.873 276.822 921.425 275.587C922.911 276.739 924.485 277.065 927.593 277.065C933.101 277.065 934.657 275.504 934.657 269.98C934.657 262.447 920.208 252.727 917.332 258.325C916.862 259.24 916.678 260.73 916.719 262.457C916.376 261.561 915.794 261.022 914.836 260.519C913.562 259.85 908.856 256.253 904.378 252.525C850.784 207.91 787.56 176.81 722.559 163.087C705.845 159.559 667.335 153.575 645.339 151.087C633.328 149.729 621.229 149.286 596.434 149.3C551.941 149.326 530.848 151.725 494.455 160.901C454.691 170.928 425.941 181.464 389.274 199.449C336.977 225.099 288.416 262.6 249.538 307.357C235.284 323.766 213.01 353.149 206.604 363.992C203.987 368.422 199.676 375.744 197.023 380.262C190.54 391.304 169.461 433.931 166.05 442.899C148.135 489.992 139.801 527.509 135.233 581.622C134.371 591.844 133.19 603.547 132.609 607.629C130.23 624.358 129.436 644.653 130.505 661.386C133.706 711.508 144.033 766.251 158.343 808.965C173.721 854.868 188.432 882.352 220.174 924.487C238.045 948.207 239.9 950.279 269.838 979.938C307.455 1017.2 308.549 1018.44 296.507 1009.97C280.176 998.483 267.058 987.661 249.146 970.894C186.672 912.416 143.492 848.153 113.78 769.432C105.078 746.379 102.357 737.785 97.1954 717.063C88.8764 683.667 83.9672 652.885 81.5564 619.001C80.0862 598.336 80.0129 591.551 81.0436 571.766C83.8385 518.117 88.6835 489.622 103.899 437.357C119.119 385.078 153.536 320.064 189.417 275.816C250.787 200.136 328.054 146.448 419.484 115.957C461.137 102.066 501.263 94.5287 551.5 91.1568Z" fill="#FBCD00"/>
<path d="M817.764 358.757C817.059 359.481 816.304 360.256 815.497 361.09C806.178 370.72 804.278 373.172 805.716 373.715C810.008 375.335 845.593 416.001 862.824 438.978C881.656 464.091 888.34 473.876 900.924 494.754C918.574 524.038 928.844 546.038 938.795 575.874C950.132 609.866 953.363 628.827 953.932 664.695C954.333 689.978 954.214 692.182 951.675 706.282C945.129 742.629 935.247 767.798 916.802 795.103C906.612 810.186 884.764 832.505 866.189 846.807C827.861 876.317 751.945 922.14 691.152 952.461C654.502 970.74 627.492 981.855 594.889 992.072C566.501 1000.97 537.554 1008.17 530.184 1008.17C527.621 1008.17 527.284 1008.5 527.688 1010.61C527.74 1010.88 527.772 1011.15 527.789 1011.43C527.658 1010.39 527.235 1009.13 526.51 1007.12C525.492 1004.29 524.938 1000.88 525.278 999.524C525.996 996.671 537.248 986.051 545.468 980.468C550.029 977.369 572.197 963.758 597.97 948.23C601.067 946.364 603.857 945.968 618.047 945.378C636.935 944.592 643.74 942.931 652.894 936.871C660.08 932.114 663.38 928.282 667.098 920.376C670.891 912.311 671.525 905.895 674.296 847.534C676.179 807.876 676.4 795.199 675.684 767.954C675.215 750.13 674.798 725.616 674.757 713.48L674.682 691.414L679.607 690.516C685.382 689.463 686.659 687.635 689.195 676.801C691.448 667.175 691.295 653.942 688.734 636.97C686.093 619.469 684.838 605.509 683.424 577.9C682.535 560.544 682.629 553.581 683.957 538.464C684.844 528.367 685.807 519.723 686.097 519.255C686.386 518.784 685.211 513.158 683.485 506.75C681.758 500.341 680.345 494.065 680.345 492.803C680.345 489.598 697.688 470.212 715.016 454.046C722.799 446.785 733.819 436.431 739.505 431.037C745.191 425.642 756.793 415.515 765.287 408.531C773.791 401.539 791.142 385.373 803.897 372.556C809.866 366.559 814.336 362.095 817.764 358.757Z" fill="#FBCD00"/>
<path fill-rule="evenodd" clip-rule="evenodd" d="M940.147 863.803C945.107 862.145 945.132 862.149 947.884 864.778C949.403 866.229 952.621 868.111 955.036 868.961C961.784 871.335 970.56 877.616 974.402 882.821C980.222 890.703 982.248 897.445 981.849 907.599C981.544 915.354 981.037 917.325 977.528 924.402C974.866 929.771 971.182 934.909 966.375 939.956C958.341 948.391 953.609 951.514 943.883 954.805C935.022 957.804 922.457 957.266 914.063 953.529C904.219 949.147 897.197 938.555 895.894 926.124C895.472 922.097 894.905 920.227 894.364 921.078C892.962 923.283 893.335 927.849 896.038 941.615C899.04 956.9 901.16 985.467 899.675 990.629C898.407 995.039 895.801 997.903 893.056 997.903C891.697 997.904 887.66 994.58 882.147 988.919C865.428 971.754 852.946 950.584 855.493 943.715C856.595 940.742 860.067 940.754 861.891 943.738C862.669 945.009 865.787 950.595 868.821 956.152C875.126 967.7 886.529 981.768 889.179 981.268C892.407 980.657 892.091 975.985 886.1 935.78C884.79 926.986 885.554 918.243 887.855 915.708C888.798 914.668 891 913.676 892.747 913.503C895.619 913.22 896.05 912.699 897.22 908.104C902.16 888.697 919.636 870.662 940.147 863.803ZM965.522 888.247C958.406 879.333 944.828 874.178 939.351 878.309C938.252 879.138 935.796 879.816 933.894 879.817C928.885 879.817 925.33 882.019 918.9 889.106C908.705 900.341 902.551 915.962 904.22 926.37C905.628 935.152 911.704 942.646 919.343 945.022C925.611 946.972 937.669 946.91 943.63 944.897C950.211 942.675 955.375 938.436 960.886 930.734C966.004 923.58 971.409 912.793 972.335 907.884C973.268 902.934 970.21 894.12 965.522 888.247Z" fill="#FBCD00"/>
<path d="M1035.13 801.075C1037.86 799.084 1040.71 801.167 1040.7 805.15C1040.7 808.796 1036.98 823.461 1032.82 836.176C1025.48 858.656 1009.08 883.923 1001.82 883.924C1001.24 883.924 998.37 882.321 995.452 880.362C992.533 878.403 987.738 874.776 984.795 872.302C977.269 865.974 965.435 858.238 953.775 852.025C944.172 846.908 943.823 846.598 944.125 843.499C944.898 835.565 956.986 840.277 986.535 860.031L1004.15 871.803L1007.36 868.094C1014.81 859.504 1021.26 844.666 1028.39 819.775C1031.43 809.178 1034.07 801.849 1035.13 801.075Z" fill="#FBCD00"/>
<path d="M1050.64 727.376C1051.36 704.184 1051.68 702.871 1056.09 705.222C1058.63 706.581 1059.24 710.557 1059.24 725.96C1059.24 749.793 1055.4 772.839 1049.15 786.591C1044.89 795.972 1042.27 797.923 1036.59 795.942C1035.74 795.646 1029.82 792.892 1023.43 789.822C1010.9 783.802 998.461 779.444 986.025 776.72C975.93 774.509 973.952 773.154 975.589 769.572C976.26 768.104 978.014 766.618 979.519 766.241C984.308 765.042 999.43 768.834 1019.35 776.231C1030.01 780.189 1039.5 783.28 1040.44 783.1C1042.63 782.679 1047.31 768.337 1048.84 757.361C1049.45 752.983 1050.26 739.49 1050.64 727.376Z" fill="#FBCD00"/>
<path fill-rule="evenodd" clip-rule="evenodd" d="M994.196 302.346C994.737 303.842 995.176 305.34 995.494 306.821C996.362 310.858 997.037 311.977 998.599 311.977C999.792 311.977 1001.09 313.113 1001.82 314.801C1002.5 316.354 1007.29 324.094 1012.48 332.001C1017.66 339.907 1024.24 351.021 1027.09 356.699C1029.95 362.376 1033.02 367.632 1033.92 368.377C1034.82 369.122 1035.56 370.291 1035.56 370.975C1035.56 371.66 1037.36 375.646 1039.57 379.834C1044.28 388.772 1058.95 423.115 1064.07 437.196C1077.58 474.326 1088.19 522.042 1091.72 561.498C1095.8 607.101 1095.92 619.975 1092.6 656.987C1090.52 680.171 1086.59 706.734 1084.94 708.656C1084.55 709.114 1084.46 693.404 1084.73 673.744C1085.03 652.516 1084.76 630.907 1084.08 620.541C1078.47 535.625 1054.33 455.017 1012.84 382.668C1005.69 370.188 993.503 351.057 988.497 344.438L986.683 342.039L983.124 345.031C986.365 342.019 988.838 338.437 990.943 333.891C996.166 322.619 997.221 311.909 994.196 302.346ZM1002.65 339.702C999.682 339.702 999.521 339.914 999.521 343.842C999.521 349.283 1001.67 354.219 1005.27 357.044C1007.33 358.662 1008.95 359.14 1010.8 358.683C1014.1 357.87 1019.08 353.217 1019.08 350.945C1019.08 346.924 1008.53 339.702 1002.65 339.702Z" fill="#FBCD00"/>
<path d="M1029.95 600.126C1031.01 599.719 1032.51 600.141 1033.65 601.166C1041.25 608.027 1057.64 664.19 1058.97 687.938L1059.52 697.832L1056.7 699.679C1054.14 701.352 1053.07 701.412 1045.43 700.31C1034.39 698.717 1034.63 698.69 1033.5 701.661C1032.45 704.408 1029.06 705.153 1027.66 702.944C1027.21 702.238 1026.14 700.308 1025.28 698.656C1023.94 696.071 1022.64 695.398 1016 693.852C1003.76 691.004 998.723 690.535 995.351 691.928C991.184 693.649 989.657 692.147 988.784 685.47C988.397 682.515 985.756 670.393 982.916 658.534C974.679 624.147 973.135 616.154 974.47 614.822C976.942 612.356 979.775 614.842 981.915 621.359C984.377 628.856 989.268 648.152 992.377 662.641C996.023 679.629 995.446 678.935 1007.58 680.946C1013.29 681.891 1018.49 682.664 1019.15 682.664C1020.89 682.664 1020.15 678.812 1013.47 653.046C1008.58 634.182 1007.72 629.662 1008.64 627.631C1010.2 624.223 1013.4 624.47 1014.91 628.116C1015.59 629.741 1019.28 643.257 1023.11 658.151L1030.08 685.231L1034.04 686.55C1036.22 687.276 1040.69 688.15 1043.98 688.493L1049.97 689.118L1049.97 684.094C1049.97 673.3 1042.93 644.621 1034.48 621.034C1027.98 602.878 1027.58 601.033 1029.95 600.126Z" fill="#FBCD00"/>
<path d="M947.381 542.51C948.658 539.192 956.788 541.416 986.857 553.306L995.299 556.645L1005.79 552.888C1011.55 550.822 1019.77 548.218 1024.04 547.102C1030.9 545.311 1032.07 545.247 1034.07 546.553C1036.93 548.419 1038.23 553.124 1036.39 554.909C1035.65 555.627 1028.62 558.121 1020.76 560.452C1012.91 562.783 1005.47 565.354 1004.23 566.166C1002.99 566.977 1000.88 569.609 999.543 572.014C994.874 580.425 976.698 606.699 974.875 607.671C973.476 608.418 972.51 608.094 970.835 606.316C969.624 605.03 968.634 603.348 968.634 602.577C968.635 601.805 972.748 594.904 977.776 587.241C986.983 573.207 990.256 567.57 990.256 565.741C990.252 565.193 981.183 561.174 970.1 556.808C949.761 548.795 945.899 546.364 947.381 542.51Z" fill="#FBCD00"/>
<path d="M533.572 462.922C534.259 462.922 538.49 465.015 542.976 467.573C547.461 470.131 553.216 472.837 555.764 473.585C558.389 474.356 560.397 475.566 560.397 476.378C560.397 478.541 551.241 478.559 543.923 476.41C535.608 473.968 531.052 471.453 531.068 469.313C531.094 466.036 532.314 462.922 533.572 462.922Z" fill="#FBCD00"/>
<path d="M531.569 240.099C532.905 246.383 541.028 251.052 541.451 252.164C542.488 254.895 547.242 255.383 548.214 252.857C548.427 252.303 548.225 249.994 547.746 246.945L548.976 252.934L571.675 253.027C593.086 253.114 595.208 253.302 609.078 256.328C627.193 260.279 643.061 265.516 663.872 274.413C701.69 290.579 737.73 313.011 772.426 341.979L787.8 354.816L796.107 349.466C801.649 345.896 810.643 339.76 819.327 333.704C811.036 339.502 802.007 345.71 794.631 350.638C789.251 354.233 782.765 358.628 780.216 360.404C777.668 362.181 770.255 367.35 763.743 371.89C748.451 382.552 723.988 401.516 704.541 417.785C687.995 431.627 682.416 434.288 657.179 440.372C649.818 442.147 636.253 446.58 627.036 450.223C617.64 453.937 609.726 456.511 609.018 456.083C607.519 455.172 604.138 451.109 602.39 448.118C601.702 446.942 601.122 443.812 601.103 441.164C601.071 436.996 601.62 435.711 605.185 431.603C607.45 428.993 609.303 426.531 609.303 426.132C609.302 425.731 608.215 423.796 606.886 421.83C605.556 419.864 604.217 416.341 603.91 414.002C603.603 411.663 602.142 407.974 600.664 405.805C599.186 403.636 597.971 400.698 597.963 399.276C597.934 393.89 596.826 392.117 592.817 391.04C588.61 389.91 587.685 388.553 587.677 383.515C587.669 376.734 580.972 369.916 570.826 366.359C563.498 363.791 558.306 363.816 550.443 366.458C538.588 370.44 530.886 376.78 519.325 392.07C509.039 405.675 508.125 414.968 515.45 431.482C516.67 434.233 517.668 436.844 517.669 437.284C517.669 437.724 514.309 438.024 510.204 437.951C502.519 437.815 502.607 437.785 491.008 444.4C487.128 446.613 485.303 446.101 479.155 441.073L476.162 438.626L477.408 419.199C478.927 395.519 481.416 366.102 482.638 357.401C483.614 350.445 483.726 350.26 494.663 337.645C505.066 325.646 505.251 325.203 502.193 319.621C499.335 314.404 498.008 314 495.627 317.625C494.699 319.037 493.265 320.192 492.44 320.192C491.184 320.192 490.896 316.731 490.662 298.885L490.384 277.578H487.295C484.304 277.578 484.187 277.396 483.586 271.82C483.353 269.663 483.132 268.064 482.847 266.884L483.843 269.734L493.598 266.212C505.619 261.872 523.799 257.062 534.325 255.437C541.756 254.29 542.18 254.086 541.401 252.035C541.003 250.984 532.899 246.368 531.568 240.096L531.569 240.099Z" fill="#FBCD00"/>
</svg>
